<svg width="30" height="30" viewBox="0 0 30 30" fill="none" xmlns="http://www.w3.org/2000/svg">
<path d="M4.18748 2.5H15.3125C16.2375 2.5 17 3.2625 17 4.1875V6.0375C17 6.7125 16.575 7.55 16.1625 7.975L12.5375 11.175C12.0375 11.6 11.7 12.4375 11.7 13.1125V16.7375C11.7 17.2375 11.3625 17.9125 10.9375 18.175L9.76248 18.9375C8.66248 19.6125 7.14998 18.85 7.14998 17.5V13.0375C7.14998 12.45 6.81248 11.6875 6.47498 11.2625L3.27498 7.8875C2.84998 7.4625 2.51248 6.7125 2.51248 6.2V4.2625C2.49998 3.2625 3.26248 2.5 4.18748 2.5Z" stroke="black" stroke-width="1.5" stroke-miterlimit="10" stroke-linecap="round" stroke-linejoin="round"/>
<path d="M2.5 15V18.75C2.5 25 5 27.5 11.25 27.5H18.75C25 27.5 27.5 25 27.5 18.75V11.25C27.5 7.35005 26.525 4.90005 24.2625 3.62505C23.625 3.26255 22.35 2.98755 21.1875 2.80005M16.25 16.25H22.5M13.75 21.25H22.5" stroke="black" stroke-width="1.5" stroke-linecap="round" stroke-linejoin="round"/>
</svg>
