<svg width="24" height="24" viewBox="0 0 24 24" fill="none" xmlns="http://www.w3.org/2000/svg">
<path d="M15.6313 6.50693C15.6313 6.50693 15.093 2.16454 12.9675 2.00153C11.7207 1.92003 11.8035 5.11682 11.4309 5.36133C11.0582 5.60585 9.35136 5.23908 8.72567 5.6466C8.09998 6.05413 6.22752 8.3091 6.22752 8.3091C6.22752 8.3091 2.85524 8.30909 2.27555 8.9249C1.69587 9.54072 1.94431 13.059 3.85818 13.6341C5.77206 14.2091 6.75199 13.5707 7.67212 14.6167C8.59226 15.6626 8.79928 21.8253 8.79928 21.8253" stroke="#7C7C7C" stroke-width="1.5" stroke-linecap="round" stroke-linejoin="round"/>
<path d="M22.4999 7.00049L20.7517 8.4721C20.7517 8.4721 18.2949 7.53027 17.0482 8.0193C15.8014 8.50833 12.5119 12.1308 12.5119 12.1308C12.4075 12.2 12.322 12.2934 12.2629 12.4027C12.2038 12.5121 12.1729 12.634 12.1729 12.7579C12.1729 12.8818 12.2038 13.0037 12.2629 13.1131C12.322 13.2224 12.4075 13.3158 12.5119 13.385C13.3032 14.0371 15.3413 12.3164 15.3413 12.3164L11.5964 16.2105C11.5964 16.2105 10.7959 16.8852 11.3065 17.5689C12.1899 18.7417 12.9674 17.9403 14.9871 16.1381L12.1761 18.6738C12.1761 18.6738 11.6148 19.6156 12.1761 20.0684C12.7373 20.5212 13.6529 20.0684 13.6529 20.0684L16.4823 17.4467" stroke="#7C7C7C" stroke-width="1.5" stroke-linecap="round" stroke-linejoin="round"/>
<path d="M14.2879 19.67C14.2879 19.67 13.8877 20.5212 14.3339 21.0284C14.9182 21.7167 15.9672 21.119 15.9672 21.119L18.4745 18.538" stroke="#7C7C7C" stroke-width="1.5" stroke-linecap="round" stroke-linejoin="round"/>
<path d="M16.8182 20.5303C16.8182 20.5303 16.4732 21.3725 16.9792 21.8253C17.4853 22.2781 18.4745 21.7076 18.4745 21.7076L21.9249 18.0851" stroke="#7C7C7C" stroke-width="1.5" stroke-linecap="round" stroke-linejoin="round"/>
<path d="M21.0094 19.0451L22.4954 20.6888" stroke="#7C7C7C" stroke-width="1.5" stroke-linecap="round" stroke-linejoin="round"/>
</svg>
