<svg width="24" height="24" viewBox="0 0 24 24" fill="none" xmlns="http://www.w3.org/2000/svg">
<path d="M18.274 5.62008C18.274 5.62008 17.4508 9.73078 20.0832 9.4184C22.7156 9.10602 22.6704 7.3042 22.3447 5.62008C22.0191 3.93596 20.8431 1.32376 17.5819 1.50938C14.3208 1.69499 13.7012 3.112 13.6333 3.81372C13.5067 5.17188 12.2493 4.97722 10.5079 5.01344C8.94742 5.04966 9.56256 8.67142 11.521 9.60855C12.7106 10.179 13.9635 10.2921 14.452 10.7901C14.9405 11.2881 15.9989 15.7112 15.8768 16.0236C15.7546 16.336 10.5214 15.5709 9.77514 15.2721C9.02884 14.9733 2 15.1498 2 15.1498" stroke="#7C7C7C" stroke-width="1.5" stroke-linecap="round" stroke-linejoin="round"/>
<path d="M6.02103 15.0955C6.02103 15.0955 10.0058 17.3365 9.26859 18.4819C8.53133 19.6273 5.39685 17.7077 5.39685 17.7077" stroke="#7C7C7C" stroke-width="1.5" stroke-linecap="round" stroke-linejoin="round"/>
<path d="M7.90257 18.8441C7.90257 18.8441 10.8154 19.333 12.1045 19.256C13.3936 19.1791 13.285 20.6957 13.285 20.6957C13.2635 21.0091 13.1341 21.3054 12.9189 21.5341C12.7036 21.7627 12.4158 21.9096 12.1045 21.9497C11.0009 22.0629 5.72698 21.9497 5.72698 21.9497C4.32483 20.8813 2.18994 19.1836 2.18994 19.1836" stroke="#7C7C7C" stroke-width="1.5" stroke-linecap="round" stroke-linejoin="round"/>
<path d="M13.285 20.6957C13.285 20.6957 15.6823 21.1484 16.8266 21.7686" stroke="#7C7C7C" stroke-width="1.5" stroke-linecap="round" stroke-linejoin="round"/>
</svg>
