<svg width="24" height="24" viewBox="0 0 24 24" fill="none" xmlns="http://www.w3.org/2000/svg">
<path d="M12.8107 17.4538C12.8107 17.3905 12.786 17.3298 12.742 17.285C12.698 17.2402 12.6384 17.215 12.5763 17.215H11.2238C11.1616 17.215 11.102 17.2402 11.058 17.285C11.0141 17.3298 10.9894 17.3905 10.9894 17.4538C10.991 17.5075 11.01 17.5592 11.0435 17.6008L11.6341 18.2758C11.6654 18.3135 11.7044 18.3438 11.7484 18.3646C11.7924 18.3854 11.8403 18.3962 11.8888 18.3962C11.9373 18.3962 11.9852 18.3854 12.0291 18.3646C12.0731 18.3438 12.1121 18.3135 12.1435 18.2758L12.7385 17.6008C12.7786 17.5618 12.8041 17.5098 12.8107 17.4538Z" fill="#7C7C7C" stroke="#7C7C7C" stroke-linecap="round" stroke-linejoin="round"/>
<path d="M21.4438 22C21.4438 22 22.1696 7.7186 18.4053 4.123C14.641 0.527394 9.62797 1.29886 8.17635 2.51117C6.2649 2.57546 5.53909 3.51684 4.74566 4.59598C3.88777 5.91767 3.30333 7.4036 3.02805 8.96305C2.96494 9.90443 3.02805 22 3.02805 22" stroke="#7C7C7C" stroke-width="1.5" stroke-linecap="round" stroke-linejoin="round"/>
<path d="M5.47144 16.9625V22" stroke="#7C7C7C" stroke-width="1.5" stroke-linecap="round" stroke-linejoin="round"/>
<path d="M8.24405 22V14.9098C8.24405 14.9098 5.93138 11.3509 5.98999 9.31665C6.04859 7.28235 8.16291 2.51117 8.16291 2.51117C8.16291 2.51117 12.5854 5.53736 13.3112 6.74508C14.037 7.95279 15.5653 12.2556 15.5653 13.9409V22" stroke="#7C7C7C" stroke-width="1.5" stroke-linecap="round" stroke-linejoin="round"/>
<path d="M18.4188 22V16.9625" stroke="#7C7C7C" stroke-width="1.5" stroke-linecap="round" stroke-linejoin="round"/>
<path d="M15.5697 16.9625C15.5697 16.9625 14.5238 20.8795 11.8776 20.8795C9.2313 20.8795 8.24402 16.9625 8.24402 16.9625" stroke="#7C7C7C" stroke-width="1.5" stroke-linecap="round" stroke-linejoin="round"/>
<path d="M9.33491 11.7551C9.81544 11.7551 10.205 11.3583 10.205 10.8688C10.205 10.3793 9.81544 9.98251 9.33491 9.98251C8.85438 9.98251 8.46484 10.3793 8.46484 10.8688C8.46484 11.3583 8.85438 11.7551 9.33491 11.7551Z" fill="#7C7C7C"/>
</svg>
