<svg width="24" height="24" viewBox="0 0 24 24" fill="none" xmlns="http://www.w3.org/2000/svg">
<path d="M20.7076 18.1591C20.7076 18.1591 22 20.8778 22 22.5" stroke="#7C7C7C" stroke-width="1.5" stroke-linecap="round" stroke-linejoin="round"/>
<path d="M11.7523 2.99301C13.1082 2.98976 14.4511 3.25627 15.7022 3.77691" stroke="#7C7C7C" stroke-width="1.5" stroke-linecap="round" stroke-linejoin="round"/>
<path d="M15.7021 3.77689C15.8271 3.39215 16.0423 3.04263 16.3301 2.75736C16.5307 2.52889 16.7763 2.34389 17.0517 2.21382C17.327 2.08376 17.6263 2.0114 17.9308 2.00124C18.2354 1.99108 18.5389 2.04334 18.8224 2.15476C19.1058 2.26619 19.3633 2.4344 19.5788 2.64899C19.7943 2.86357 19.9632 3.11996 20.0751 3.40224C20.187 3.68452 20.2395 3.98667 20.2293 4.28997C20.2191 4.59327 20.1464 4.89125 20.0158 5.16544C19.8852 5.43963 19.6994 5.68417 19.47 5.88391L19.1787 6.16486C20.1618 7.19442 20.9182 8.41704 21.3994 9.75446C21.8806 11.0919 22.0761 12.5146 21.9732 13.9316C21.8704 15.3485 21.4716 16.7285 20.8024 17.9832C20.1331 19.2378 19.2081 20.3395 18.0866 21.2176" stroke="#7C7C7C" stroke-width="1.5" stroke-linecap="round" stroke-linejoin="round"/>
<path d="M17.6407 5.03659L17.1765 5.65737" stroke="#7C7C7C" stroke-width="1.5" stroke-linecap="round" stroke-linejoin="round"/>
<path d="M5.85486 5.03659L6.32356 5.65737" stroke="#7C7C7C" stroke-width="1.5" stroke-linecap="round" stroke-linejoin="round"/>
<path d="M2.79234 18.1591C2.79234 18.1591 1.5 20.8778 1.5 22.5" stroke="#7C7C7C" stroke-width="1.5" stroke-linecap="round" stroke-linejoin="round"/>
<path d="M11.7522 2.99301C10.3949 2.98976 9.05049 3.25626 7.79785 3.77691" stroke="#7C7C7C" stroke-width="1.5" stroke-linecap="round" stroke-linejoin="round"/>
<path d="M7.79791 3.77689C7.6729 3.39323 7.45939 3.04407 7.17449 2.75736C6.9739 2.52889 6.72831 2.34389 6.45296 2.21382C6.17761 2.08376 5.87836 2.0114 5.57377 2.00124C5.26918 1.99108 4.96574 2.04334 4.68226 2.15476C4.39878 2.26619 4.14131 2.4344 3.92581 2.64899C3.71031 2.86357 3.54138 3.11996 3.42948 3.40224C3.31758 3.68452 3.26511 3.98667 3.27532 4.28997C3.28552 4.59327 3.35818 4.89125 3.4888 5.16544C3.61942 5.43963 3.80521 5.68417 4.03464 5.88391L4.32588 6.16486C3.37933 7.15413 2.64214 8.32276 2.15811 9.60132C1.67409 10.8799 1.4531 12.2423 1.50828 13.6076C1.56347 14.9729 1.89369 16.3132 2.47934 17.5489C3.06499 18.7846 3.89411 19.8905 4.91744 20.8008" stroke="#7C7C7C" stroke-width="1.5" stroke-linecap="round" stroke-linejoin="round"/>
<path d="M15.1606 10.6553C15.5803 10.6553 15.9205 10.3165 15.9205 9.89859C15.9205 9.48067 15.5803 9.14188 15.1606 9.14188C14.7409 9.14188 14.4006 9.48067 14.4006 9.89859C14.4006 10.3165 14.7409 10.6553 15.1606 10.6553Z" fill="#7C7C7C"/>
<path d="M8.33489 10.6553C8.75459 10.6553 9.09482 10.3165 9.09482 9.89859C9.09482 9.48067 8.75459 9.14188 8.33489 9.14188C7.91519 9.14188 7.57495 9.48067 7.57495 9.89859C7.57495 10.3165 7.91519 10.6553 8.33489 10.6553Z" fill="#7C7C7C"/>
<path d="M11.7522 10.6508H12.4302C12.9445 10.6508 13.263 11.045 13.0082 11.3622L12.6669 11.7836L12.3256 12.205C12.1723 12.3558 11.9655 12.4404 11.7499 12.4404C11.5344 12.4404 11.3276 12.3558 11.1743 12.205L10.833 11.7836L10.4917 11.3622C10.2369 11.045 10.56 10.6508 11.0696 10.6508H11.7522Z" fill="#7C7C7C"/>
<path d="M15.1606 13.1475C15.3252 13.373 15.4371 13.6322 15.4881 13.9063C15.5391 14.1803 15.5281 14.4623 15.4557 14.7315C15.3833 15.0008 15.2514 15.2505 15.0697 15.4625C14.8879 15.6745 14.6609 15.8434 14.4053 15.9569L11.7523 14.738V16.5867" stroke="#7C7C7C" stroke-width="1.5" stroke-linecap="round" stroke-linejoin="round"/>
<path d="M8.33942 13.1475C8.17502 13.3733 8.06337 13.6328 8.01265 13.9071C7.96192 14.1814 7.9734 14.4634 8.04624 14.7327C8.11909 15.002 8.25145 15.2517 8.43366 15.4635C8.61586 15.6753 8.84331 15.8439 9.09935 15.9569L11.7523 14.738" stroke="#7C7C7C" stroke-width="1.5" stroke-linecap="round" stroke-linejoin="round"/>
<path d="M14.4053 16.1064C14.4053 18.8795 13.2176 19.7586 11.7523 19.7586" stroke="#7C7C7C" stroke-width="1.5" stroke-linecap="round" stroke-linejoin="round"/>
<path d="M9.09937 16.1064C9.09937 18.8795 10.287 19.7586 11.7523 19.7586" stroke="#7C7C7C" stroke-width="1.5" stroke-linecap="round" stroke-linejoin="round"/>
</svg>
