<svg width="24" height="24" viewBox="0 0 24 24" fill="none" xmlns="http://www.w3.org/2000/svg">
<path d="M8.58146 3.41502C8.58146 3.17234 8.48507 2.93961 8.31347 2.76801C8.14188 2.59642 7.90914 2.50002 7.66647 2.50002H2.42146C2.24709 2.49879 2.07599 2.54741 1.92833 2.64016C1.78066 2.73291 1.66258 2.86592 1.58798 3.02354C1.51338 3.18115 1.48535 3.35679 1.50723 3.52979C1.52911 3.70279 1.59998 3.86594 1.71147 4.00002L4.04147 6.60001C4.16244 6.74846 4.31494 6.86811 4.48791 6.95028C4.66088 7.03245 4.84997 7.0751 5.04147 7.0751C5.23296 7.0751 5.42205 7.03245 5.59501 6.95028C5.76798 6.86811 5.9205 6.74846 6.04147 6.60001L8.37146 4.00002C8.50949 3.8366 8.58404 3.62892 8.58146 3.41502Z" stroke="#1D1D1D" stroke-width="1.5" stroke-miterlimit="10"/>
<path d="M5.04138 7.08502V15.625C5.04138 15.625 6.54138 20.41 10.1614 19.94C14.5941 19.3252 18.7764 17.5175 22.2614 14.71" stroke="#1D1D1D" stroke-width="1.5" stroke-linecap="round" stroke-linejoin="round"/>
<path d="M22.8315 16.115C22.1844 13.709 21.3776 11.3487 20.4165 9.05002C19.1865 6.39002 17.1065 6.21002 17.1065 6.21002V8.67003C15.4147 9.53376 13.7931 10.5284 12.2565 11.645C11.5565 12.215 12.3465 15.11 13.8465 15.31C14.5307 15.4344 15.2277 15.473 15.9215 15.425V21.82" stroke="#1D1D1D" stroke-width="1.5" stroke-linecap="round" stroke-linejoin="round"/>
</svg>
