<svg width="24" height="24" viewBox="0 0 24 24" fill="none" xmlns="http://www.w3.org/2000/svg">
<path d="M12.9239 21.1106C12.9298 21.3485 13.0274 21.5747 13.1959 21.7409C13.3643 21.9071 13.5903 22 13.8256 22H18.8435C19.0104 22.0015 19.1742 21.9548 19.3156 21.8653C19.4571 21.7757 19.5702 21.6472 19.6418 21.4947C19.7134 21.3422 19.7403 21.1722 19.7195 21.0048C19.6987 20.8373 19.631 20.6794 19.5243 20.5496L17.2701 18.0182C17.1538 17.8758 17.0078 17.7611 16.8425 17.6824C16.6773 17.6037 16.4969 17.5628 16.3143 17.5628C16.1317 17.5628 15.9513 17.6037 15.7861 17.6824C15.6208 17.7611 15.4748 17.8758 15.3585 18.0182L13.1043 20.5496C12.9844 20.7112 12.921 20.9085 12.9239 21.1106Z" stroke="#7C7C7C" stroke-width="1.5" stroke-miterlimit="10"/>
<path d="M20.2277 9.4025L11.0891 2L2 9.4025" stroke="#7C7C7C" stroke-width="1.5" stroke-linecap="round" stroke-linejoin="round"/>
<path d="M4.50665 7.36371V14.8711C4.50665 14.8711 4.46157 16.2622 5.78705 16.2622H7.54535" stroke="#7C7C7C" stroke-width="1.5" stroke-linecap="round" stroke-linejoin="round"/>
<path d="M17.712 7.36371V9.9726" stroke="#7C7C7C" stroke-width="1.5" stroke-linecap="round" stroke-linejoin="round"/>
<path d="M16.3233 14.9532C17.0902 14.9532 17.7119 14.3243 17.7119 13.5484C17.7119 12.7726 17.0902 12.1436 16.3233 12.1436C15.5564 12.1436 14.9347 12.7726 14.9347 13.5484C14.9347 14.3243 15.5564 14.9532 16.3233 14.9532Z" stroke="#7C7C7C" stroke-width="1.5" stroke-linecap="round" stroke-linejoin="round"/>
<path d="M11.54 17.7674C12.3069 17.7674 12.9286 17.1384 12.9286 16.3626C12.9286 15.5867 12.3069 14.9578 11.54 14.9578C10.7731 14.9578 10.1514 15.5867 10.1514 16.3626C10.1514 17.1384 10.7731 17.7674 11.54 17.7674Z" stroke="#7C7C7C" stroke-width="1.5" stroke-linecap="round" stroke-linejoin="round"/>
<path d="M21.1114 17.7674C21.8783 17.7674 22.5 17.1384 22.5 16.3626C22.5 15.5867 21.8783 14.9578 21.1114 14.9578C20.3445 14.9578 19.7228 15.5867 19.7228 16.3626C19.7228 17.1384 20.3445 17.7674 21.1114 17.7674Z" stroke="#7C7C7C" stroke-width="1.5" stroke-linecap="round" stroke-linejoin="round"/>
</svg>
